<svg width="972" height="972" viewBox="0 0 972 972" fill="none" xmlns="http://www.w3.org/2000/svg">
<rect width="972" height="972" rx="106.312" fill="#202040"/>
<path d="M370.427 267.607C304.701 279.584 249.783 314.93 217.651 366.927C213.269 373.938 205.674 390.296 200.708 403.442C189.315 434.114 186.394 485.234 194.281 520.288C206.55 576.083 247.739 627.495 300.904 654.078C343.261 675.11 357.866 678.031 417.75 678.031C473.545 677.739 493.409 674.234 536.058 656.707C548.455 651.571 556.583 639.522 556.702 626.103L557.382 549.5C557.966 479.1 557.09 449.596 554.753 446.967C550.079 441.417 504.509 441.417 499.835 446.675C497.79 449.304 496.33 477.347 496.038 529.052L495.367 589.157C495.244 600.214 488.124 609.977 477.634 613.473C463.613 618.147 451.636 619.316 417.75 619.316C368.091 619.608 350.271 614.934 317.847 593.025C277.534 565.858 254.165 521.457 254.165 472.089C254.165 416.879 287.174 364.59 337.418 340.637C357.866 330.997 392.044 323.11 414.829 323.11C439.075 323.11 479.679 331.873 505.385 342.681C531.676 353.782 542.484 355.242 546.574 348.816C548.034 346.771 548.911 333.918 548.619 320.188L548.374 313.245C547.985 302.233 541.568 292.327 531.676 287.471C504.801 274.326 467.994 267.023 423.593 265.855C401.976 265.563 378.023 266.147 370.427 267.607Z" fill="white"/>
<path d="M670.723 275.203C666.634 279.293 666.049 301.202 666.049 472.09C666.049 642.978 666.634 664.887 670.723 668.976C676.273 674.819 715.417 675.695 720.967 670.145C723.596 667.516 724.473 619.317 724.473 471.506C724.473 248.036 727.978 270.529 694.093 270.529C680.947 270.529 673.936 271.99 670.723 275.203Z" fill="white"/>
<path d="M670.773 267.757C666.64 268.999 666.049 275.653 666.049 327.553C666.049 379.454 666.64 386.108 670.773 387.35C676.383 389.124 715.946 389.39 721.556 387.704C724.213 386.906 725.099 372.267 725.099 327.376C725.099 259.507 728.642 266.338 694.393 266.338C681.107 266.338 674.021 266.781 670.773 267.757Z" fill="#A02040"/>
</svg>
